<svg width="26" height="22" viewBox="0 0 26 22" fill="none" xmlns="http://www.w3.org/2000/svg">
<path d="M25.4944 7.67089L25.4944 7.67168C25.4276 9.47074 24.636 11.237 23.4378 12.8951C22.2411 14.551 20.6619 16.0668 19.0754 17.3565C17.491 18.6445 15.913 19.696 14.7299 20.4258C14.1388 20.7904 13.6476 21.0741 13.3049 21.2661C13.1854 21.333 13.0841 21.3888 13.0029 21.433C12.9216 21.3888 12.8202 21.333 12.7006 21.266C12.3578 21.074 11.8662 20.7905 11.2749 20.4259C10.0912 19.6962 8.51249 18.6451 6.92731 17.3578C5.34007 16.0689 3.76012 14.5541 2.56291 12.8998C1.36413 11.2433 0.572389 9.47935 0.505595 7.68349L0.505567 7.68277C0.351562 3.69604 3.40488 0.51487 6.9213 0.511834C8.10577 0.536691 9.26019 0.895219 10.2543 1.54749C11.2498 2.20071 12.0451 3.12262 12.5494 4.20939C12.6315 4.38625 12.8088 4.49927 13.0038 4.49892C13.1988 4.49858 13.3758 4.38494 13.4572 4.2078C13.9579 3.11883 14.7511 2.19433 15.7459 1.53906C16.7392 0.884748 17.8938 0.524959 19.0787 0.500002C22.5947 0.503061 25.6484 3.69554 25.4944 7.67089Z" fill="#FA3766" stroke="#FA3766" stroke-linecap="round" stroke-linejoin="round"/>
</svg>
