<svg width="48" height="40" viewBox="0 0 48 40" fill="none" xmlns="http://www.w3.org/2000/svg">
<path d="M0 15C0 6.71573 6.19913 0 13.8462 0H34.1538C41.8009 0 48 6.71573 48 15V25C48 33.2843 41.8009 40 34.1538 40H13.8462C6.19914 40 0 33.2843 0 25V15Z" fill="#2E3D6D"/>
<path fill-rule="evenodd" clip-rule="evenodd" d="M17.6006 19.8C18.1529 19.8 18.6006 20.2477 18.6006 20.8V26.2H29.4006V20.8C29.4006 20.2477 29.8483 19.8 30.4006 19.8C30.9529 19.8 31.4006 20.2477 31.4006 20.8V27.2C31.4006 27.7523 30.9529 28.2 30.4006 28.2H17.6006C17.0483 28.2 16.6006 27.7523 16.6006 27.2V20.8C16.6006 20.2477 17.0483 19.8 17.6006 19.8Z" fill="#F4F7FF"/>
<path fill-rule="evenodd" clip-rule="evenodd" d="M23.2937 12.0929C23.6842 11.7024 24.3174 11.7024 24.7079 12.0929L27.9079 15.2929C28.2984 15.6834 28.2984 16.3166 27.9079 16.7071C27.5174 17.0977 26.8842 17.0977 26.4937 16.7071L25.0008 15.2142V22.4C25.0008 22.9523 24.5531 23.4 24.0008 23.4C23.4485 23.4 23.0008 22.9523 23.0008 22.4V15.2142L21.5079 16.7071C21.1174 17.0977 20.4842 17.0977 20.0937 16.7071C19.7032 16.3166 19.7032 15.6834 20.0937 15.2929L23.2937 12.0929Z" fill="#F4F7FF"/>
</svg>
