<svg width="20" height="20" viewBox="0 0 20 20" fill="none" xmlns="http://www.w3.org/2000/svg">
<path d="M10 16.0548C13.3439 16.0548 16.0548 13.3439 16.0548 10C16.0548 6.65604 13.3439 3.94524 10 3.94524C6.65604 3.94524 3.94524 6.65604 3.94524 10C3.94524 13.3439 6.65604 16.0548 10 16.0548Z" fill="#445282"/>
<path d="M9.99999 3.14211C9.72337 3.14211 9.45807 3.03222 9.26246 2.83662C9.06686 2.64101 8.95697 2.37571 8.95697 2.09909V1.04302C8.95697 0.766397 9.06686 0.5011 9.26246 0.305495C9.45807 0.10989 9.72337 0 9.99999 0C10.2766 0 10.5419 0.10989 10.7375 0.305495C10.9331 0.5011 11.043 0.766397 11.043 1.04302V2.09909C11.043 2.37571 10.9331 2.64101 10.7375 2.83662C10.5419 3.03222 10.2766 3.14211 9.99999 3.14211Z" fill="#445282"/>
<path d="M4.41461 5.45761C4.27741 5.45737 4.14161 5.43007 4.01499 5.37728C3.88836 5.32448 3.77339 5.24721 3.67667 5.14991L2.9283 4.40415C2.73258 4.20844 2.62263 3.94299 2.62263 3.66621C2.62263 3.38943 2.73258 3.12399 2.9283 2.92827C3.12401 2.73256 3.38946 2.62261 3.66624 2.62261C3.94302 2.62261 4.20846 2.73256 4.40418 2.92827L5.14994 3.67664C5.29582 3.82236 5.39524 4.00804 5.43563 4.21023C5.47603 4.41243 5.45559 4.62206 5.3769 4.81264C5.29822 5.00322 5.16481 5.16621 4.99353 5.281C4.82225 5.3958 4.6208 5.45725 4.41461 5.45761Z" fill="#445282"/>
<path d="M2.09909 11.043H1.04302C0.766397 11.043 0.5011 10.9332 0.305495 10.7375C0.10989 10.5419 0 10.2766 0 10C0 9.72339 0.10989 9.45809 0.305495 9.26249C0.5011 9.06688 0.766397 8.95699 1.04302 8.95699H2.09909C2.37571 8.95699 2.64101 9.06688 2.83662 9.26249C3.03222 9.45809 3.14211 9.72339 3.14211 10C3.14211 10.2766 3.03222 10.5419 2.83662 10.7375C2.64101 10.9332 2.37571 11.043 2.09909 11.043Z" fill="#445282"/>
<path d="M3.66623 17.3768C3.45982 17.377 3.258 17.3159 3.08633 17.2013C2.91465 17.0867 2.78084 16.9237 2.70182 16.733C2.62281 16.5424 2.60216 16.3325 2.64247 16.1301C2.68278 15.9276 2.78225 15.7417 2.92829 15.5958L3.67666 14.8631C3.87507 14.6833 4.13501 14.5868 4.40267 14.5933C4.67033 14.5999 4.92521 14.7092 5.11453 14.8985C5.30385 15.0878 5.41312 15.3427 5.41971 15.6104C5.4263 15.878 5.32971 16.138 5.14993 16.3364L4.40417 17.0848C4.20628 17.2755 3.94108 17.3805 3.66623 17.3768Z" fill="#445282"/>
<path d="M9.99999 20C9.72337 20 9.45807 19.8901 9.26246 19.6945C9.06686 19.4989 8.95697 19.2336 8.95697 18.957V17.9139C8.95697 17.6373 9.06686 17.372 9.26246 17.1764C9.45807 16.9808 9.72337 16.8709 9.99999 16.8709C10.2766 16.8709 10.5419 16.9808 10.7375 17.1764C10.9331 17.372 11.043 17.6373 11.043 17.9139V18.957C11.043 19.2336 10.9331 19.4989 10.7375 19.6945C10.5419 19.8901 10.2766 20 9.99999 20Z" fill="#445282"/>
<path d="M16.3338 17.3768C16.1967 17.3769 16.0611 17.35 15.9344 17.2977C15.8078 17.2453 15.6928 17.1685 15.5958 17.0717L14.8631 16.3233C14.7124 16.1225 14.6393 15.874 14.6571 15.6236C14.6749 15.3731 14.7824 15.1375 14.96 14.96C15.1375 14.7824 15.3731 14.6749 15.6236 14.6571C15.874 14.6393 16.1225 14.7124 16.3233 14.8631L17.0717 15.6089C17.2177 15.7547 17.3172 15.9406 17.3575 16.1431C17.3978 16.3455 17.3772 16.5554 17.2982 16.7461C17.2192 16.9367 17.0853 17.0997 16.9137 17.2143C16.742 17.3289 16.5402 17.39 16.3338 17.3898V17.3768Z" fill="#445282"/>
<path d="M18.957 11.043H17.9139C17.6373 11.043 17.372 10.9332 17.1764 10.7375C16.9808 10.5419 16.8709 10.2766 16.8709 10C16.8709 9.72339 16.9808 9.45809 17.1764 9.26249C17.372 9.06688 17.6373 8.95699 17.9139 8.95699H18.957C19.2336 8.95699 19.4989 9.06688 19.6945 9.26249C19.8901 9.45809 20 9.72339 20 10C20 10.2766 19.8901 10.5419 19.6945 10.7375C19.4989 10.9332 19.2336 11.043 18.957 11.043Z" fill="#445282"/>
<path d="M15.5854 5.45761C15.3803 5.45471 15.1806 5.39142 15.0114 5.27564C14.8421 5.15987 14.7106 4.99675 14.6336 4.80669C14.5565 4.61662 14.5371 4.40805 14.578 4.20706C14.6188 4.00606 14.718 3.82157 14.8631 3.67664L15.6089 2.92827C15.7058 2.83136 15.8208 2.75449 15.9474 2.70205C16.0741 2.6496 16.2098 2.62261 16.3468 2.62261C16.4839 2.62261 16.6196 2.6496 16.7462 2.70205C16.8728 2.75449 16.9878 2.83136 17.0847 2.92827C17.1817 3.02518 17.2585 3.14023 17.311 3.26684C17.3634 3.39346 17.3904 3.52916 17.3904 3.66621C17.3904 3.80326 17.3634 3.93897 17.311 4.06558C17.2585 4.1922 17.1817 4.30724 17.0847 4.40415L16.3233 5.14991C16.2266 5.24721 16.1117 5.32448 15.985 5.37728C15.8584 5.43007 15.7226 5.45737 15.5854 5.45761Z" fill="#445282"/>
</svg>
