<svg width="20" height="20" viewBox="0 0 20 20" fill="none" xmlns="http://www.w3.org/2000/svg">
<g clip-path="url(#clip0)">
<path d="M14.1414 1.47879C14.5262 2.50723 14.7115 3.6017 14.6871 4.70179C14.6231 6.9432 13.7011 9.07062 12.1175 10.6308C10.534 12.191 8.414 13.0607 6.20923 13.0546C4.24341 13.0362 2.34694 12.3133 0.853551 11.013C0.773139 10.941 0.672786 10.8962 0.566287 10.8846C0.459787 10.873 0.35237 10.8952 0.258801 10.9482C0.165233 11.0012 0.0901058 11.0824 0.0437482 11.1806C-0.0026093 11.2788 -0.0179217 11.3892 -8.39992e-05 11.4966C0.288239 13.1997 0.995516 14.8009 2.05592 16.1512C3.11632 17.5016 4.49538 18.5571 6.06474 19.2196C7.6341 19.8821 9.34275 20.13 11.0317 19.9403C12.7206 19.7506 14.3348 19.1294 15.7242 18.1346C17.1136 17.1397 18.2329 15.8036 18.978 14.2504C19.7231 12.6973 20.0698 10.9777 19.9857 9.25167C19.9017 7.52565 19.3897 5.8493 18.4973 4.37866C17.6049 2.90802 16.3612 1.69088 14.882 0.840539C14.7901 0.785802 14.6837 0.761444 14.5775 0.770826C14.4714 0.780208 14.3707 0.822868 14.2895 0.892917C14.2082 0.962966 14.1503 1.05695 14.1238 1.16189C14.0972 1.26684 14.1034 1.37757 14.1414 1.47879Z" fill="#F4F7FF"/>
<path d="M5.96374 0.360797L6.71213 1.90688C6.75859 2.00147 6.82677 2.08328 6.9109 2.14538C6.99504 2.20749 7.09265 2.24806 7.19547 2.26367L8.87155 2.50946C8.98903 2.52806 9.09914 2.57941 9.18965 2.65782C9.28016 2.73622 9.34753 2.83861 9.38428 2.95361C9.42103 3.06861 9.42572 3.19171 9.39782 3.30926C9.36993 3.4268 9.31054 3.53418 9.22626 3.61947L8.01402 4.80877C7.939 4.88256 7.88277 4.97382 7.85017 5.07465C7.81757 5.17549 7.80959 5.28288 7.82692 5.38756L8.11537 7.08429C8.13565 7.20391 8.12261 7.32692 8.0777 7.4394C8.03279 7.55187 7.95782 7.64931 7.86128 7.72069C7.76473 7.79206 7.65046 7.83452 7.53142 7.84326C7.41237 7.85199 7.29329 7.82665 7.18767 7.77011L5.68699 6.97725C5.5962 6.92659 5.49431 6.90003 5.39075 6.90003C5.28719 6.90003 5.18531 6.92659 5.09451 6.97725L3.59383 7.77011C3.48916 7.82565 3.37141 7.85062 3.25364 7.84226C3.13587 7.8339 3.02267 7.79253 2.9266 7.72274C2.83053 7.65295 2.75534 7.55746 2.70937 7.44687C2.66339 7.33627 2.64843 7.21489 2.66614 7.09618L2.95068 5.39945C2.96953 5.29509 2.96267 5.18761 2.9307 5.08661C2.89873 4.9856 2.84265 4.89423 2.76748 4.82066L1.55914 3.61947C1.47486 3.53418 1.41548 3.4268 1.38758 3.30926C1.35969 3.19171 1.36437 3.06861 1.40112 2.95361C1.43787 2.83861 1.50524 2.73622 1.59575 2.65782C1.68626 2.57941 1.79637 2.52806 1.91385 2.50946L3.58993 2.26367C3.69254 2.24744 3.78988 2.20662 3.87392 2.14458C3.95796 2.08254 4.02629 2.00107 4.07327 1.90688L4.81776 0.360797C4.87061 0.252147 4.95226 0.160685 5.05351 0.0967365C5.15476 0.0327884 5.27157 -0.00109863 5.39075 -0.00109863C5.50994 -0.00109863 5.62675 0.0327884 5.72799 0.0967365C5.82924 0.160685 5.9109 0.252147 5.96374 0.360797Z" fill="#F4F7FF"/>
</g>
<defs>
<clipPath id="clip0">
<rect width="20" height="20" fill="white"/>
</clipPath>
</defs>
</svg>
