<svg width="52" height="52" viewBox="0 0 52 52" fill="none" xmlns="http://www.w3.org/2000/svg">
<circle cx="26" cy="26" r="24" fill="#F4F7FF"/>
<mask id="mask0" mask-type="alpha" maskUnits="userSpaceOnUse" x="2" y="2" width="48" height="48">
<circle cx="26" cy="26" r="24" fill="#F4F7FF"/>
</mask>
<g mask="url(#mask0)">
<path d="M14.8347 24.3336C5.7421 26.4764 2.35467 22.5479 1.79752 20.3158L-0.54248 48.1053L14.8347 46.0964C27.8718 49.7793 31.549 40.4046 28.5404 37.0564C25.5318 33.7083 26.2004 34.0431 26.5347 31.0298C26.869 28.0165 26.2004 21.655 14.8347 24.3336Z" fill="#212E5A"/>
<path d="M13.2208 20.3896C7.73505 20.639 6.15583 16.1299 6.05193 13.8442L4.80518 2.62341H25.3766C26.8312 2.62341 29.9273 3.80783 30.6753 8.54549C31.6104 14.4676 26.935 12.2858 21.6363 13.8442C16.3376 15.4026 20.0779 20.078 13.2208 20.3896Z" fill="#212E5A"/>
<path d="M40.6495 16.026C43.143 14.2806 46.0521 15.2987 47.195 16.026C60.2859 22.5715 47.195 49.3767 40.6495 46.2598C34.1041 43.1429 35.3508 36.5974 36.5976 33.4806C37.8443 30.3637 35.6625 27.2468 31.9222 26.3117C28.182 25.3767 25.3768 20.078 30.3638 16.9611C35.3508 13.8442 37.5326 18.2078 40.6495 16.026Z" fill="#212E5A"/>
</g>
<circle cx="26" cy="26" r="24" stroke="#212E5A" stroke-width="4"/>
</svg>
